<svg width="208" height="108" viewBox="0 0 208 108" fill="none" xmlns="http://www.w3.org/2000/svg">
<path d="M79.7751 18.8571C83.2818 5.57711 96.9327 -2.36609 110.333 1.10906C123.734 4.58421 131.749 18.1125 128.242 31.3925C127.115 35.8605 124.735 39.708 121.604 42.8108C120.385 44.0193 118.928 44.9925 117.465 45.9595C117.415 45.9927 117.422 46.0685 117.478 46.0911C119.573 46.9371 121.912 47.6665 124.61 48.3959C125.018 48.506 125.111 48.7682 125.111 49.0165C125.111 49.2647 125.111 49.5377 124.61 49.637C123.984 49.7611 111.084 50.8781 102.193 49.8852C101.942 49.8852 101.191 49.7611 100.94 49.7611C100.064 49.637 98.8112 49.5129 97.4336 49.1406C84.0332 45.5413 76.2684 32.1372 79.7751 18.8571Z" fill="#5EC65E"/>
<path d="M102.928 11.5318C100.924 11.78 98.7954 12.1524 96.7916 12.5247C95.0383 12.8971 93.1598 13.2694 91.6569 14.3864C88.7764 16.4963 88.2755 20.3438 88.526 23.6948C88.9017 27.7905 90.2793 31.5139 91.6569 35.3614C92.2831 36.9749 92.9093 38.5883 94.2869 39.7053C95.7898 40.9465 97.6683 41.4429 99.5469 41.567C103.93 41.6911 108.439 40.2018 112.321 38.4642C113.864 37.7738 113.885 36.2377 113.198 34.989C112.446 33.6238 111.154 33.2478 109.745 33.7451C107.903 34.3953 106.494 34.8288 104.544 35.3614C102.593 35.894 101.528 36.145 99.7751 36.0209C98.5228 35.8968 97.2926 34.8621 96.7916 33.7451C96.0402 31.8834 95.6713 30.5478 95.1704 28.562C94.7878 26.5924 94.4121 24.8935 94.2869 22.9077C94.1617 21.6666 94.0364 20.6651 94.7878 19.5481C95.5393 18.307 96.6664 17.9857 98.044 17.7374C100.173 17.3651 102.302 16.9928 104.431 16.6204C105.809 16.3722 106.56 14.6346 106.184 13.5176C105.684 11.9042 104.306 11.4077 102.928 11.5318Z" fill="white"/>
<path d="M110.479 23.5964C110.781 23.5442 111.069 23.7463 111.122 24.048L111.822 28.0365C111.947 28.9053 112.824 29.5259 113.701 29.2776L115.579 28.9053C116.331 28.7812 116.957 27.9124 116.832 27.0436L116.154 23.1832C116.101 22.8805 116.304 22.5923 116.608 22.54L120.712 21.8326C121.589 21.5844 122.215 20.8397 121.965 19.9709L121.589 18.1092C121.464 17.3646 120.587 16.744 119.71 16.8681L115.73 17.554C115.428 17.6062 115.14 17.4041 115.087 17.1024L114.327 12.7707C114.202 12.026 113.325 11.4055 112.448 11.5296L110.57 11.9019C109.818 12.026 109.192 12.8948 109.317 13.7636L110.055 17.9672C110.108 18.2699 109.905 18.5581 109.601 18.6104L105.308 19.3504C104.557 19.4745 103.93 20.3433 104.056 21.212L104.431 23.0737C104.557 23.8184 105.433 24.439 106.31 24.3149L110.479 23.5964Z" fill="white"/>
<path d="M48.6344 99.3969H35.5131C34.6881 99.3944 34.0176 98.7239 34.0176 97.8989V79.1717C34.0176 78.3466 34.6881 77.6761 35.5131 77.6761H46.3611C47.4628 77.6761 48.3552 76.7837 48.3552 75.682V73.0273C48.3552 71.9256 47.4628 71.0332 46.3611 71.0332H28.4939C27.3921 71.0332 26.4998 71.9256 26.4998 73.0273V104.043C26.4998 105.145 27.3921 106.037 28.4939 106.037H48.6344C49.7361 106.04 50.6285 105.147 50.6285 104.046V101.391C50.6285 100.289 49.7361 99.3969 48.6344 99.3969Z" fill="white"/>
<path d="M61.2695 72.3281V105.67C61.2695 106.771 60.3771 107.664 59.2754 107.664H55.8754C54.7737 107.664 53.8813 106.771 53.8813 105.67V91.7133C53.8813 91.2996 53.5473 90.9656 53.1335 90.9656H44.337C43.2353 90.9656 42.3429 90.0732 42.3429 88.9714V86.0526C42.3429 84.9508 43.2353 84.0585 44.337 84.0585H53.1335C53.5473 84.0585 53.8813 83.7244 53.8813 83.3107V72.3281C53.8813 71.2263 54.7737 70.334 55.8754 70.334H59.2754C60.3771 70.334 61.2695 71.2263 61.2695 72.3281Z" fill="white"/>
<path d="M85.4632 75.6338H79.8996C79.4859 75.6338 79.1518 75.2998 79.1518 74.886V72.9941C79.1518 71.8924 78.2595 71 77.1577 71H73.5833C72.4815 71 71.5892 71.8924 71.5892 72.9941V74.886C71.5892 75.2998 71.2552 75.6338 70.8414 75.6338H65.2354C64.1337 75.6338 63.2413 76.5262 63.2413 77.6279V80.3723C63.2413 81.4741 64.1337 82.3664 65.2354 82.3664H85.4632C86.5649 82.3664 87.4573 81.4741 87.4573 80.3723V77.6279C87.4573 76.5262 86.5649 75.6338 85.4632 75.6338Z" fill="white"/>
<path d="M100.459 83.9712H98.829C98.4152 83.9712 98.0812 83.6372 98.0812 83.2234V72.3281C98.0812 71.2263 97.1888 70.334 96.0871 70.334H92.6871C91.5854 70.334 90.693 71.2263 90.693 72.3281V105.67C90.693 106.771 91.5854 107.664 92.6871 107.664H96.0871C97.1888 107.664 98.0812 106.771 98.0812 105.67V91.8878C98.0812 91.4741 98.4152 91.14 98.829 91.14H100.459C101.561 91.14 102.453 90.2477 102.453 89.1459V85.9653C102.453 84.8636 101.561 83.9712 100.459 83.9712Z" fill="white"/>
<path d="M85.9918 89.5553C85.0147 87.793 83.6064 86.4071 81.7693 85.4026C79.9297 84.398 77.791 83.8945 75.3483 83.8945C72.9055 83.8945 70.7668 84.398 68.9272 85.4026C67.0876 86.4071 65.6818 87.793 64.7047 89.5553C63.7276 91.3176 63.239 93.3067 63.239 95.5227C63.239 97.7386 63.7276 99.7278 64.7047 101.49C65.6818 103.252 67.0876 104.638 68.9272 105.643C70.7668 106.647 72.9055 107.151 75.3483 107.151C77.791 107.151 79.9297 106.647 81.7693 105.643C83.6089 104.638 85.0147 103.255 85.9918 101.49C86.9689 99.7278 87.4575 97.7386 87.4575 95.5227C87.4575 93.3067 86.9689 91.3201 85.9918 89.5553ZM75.3433 101.131C72.4044 101.131 70.029 99.2567 70.029 95.5202C70.029 91.7837 72.4044 89.8669 75.3433 89.8669C78.2821 89.8669 80.6675 91.7862 80.6675 95.5202C80.6675 99.2542 78.2821 101.131 75.3433 101.131Z" fill="white"/>
<path d="M119.45 99.2151C122.008 99.2151 124.575 99.1104 126.888 99.1228C128.127 99.1278 129.132 100.13 129.132 101.369V104.168C129.132 105.18 128.394 106.005 126.726 106.005H106.416C105.314 106.005 104.422 105.113 104.422 104.011V72.9925C104.422 71.8908 105.314 70.9984 106.416 70.9984H110.008C111.11 70.9984 112.002 71.8908 112.002 72.9925V97.717C112.002 98.542 112.673 99.2126 113.498 99.2126H119.45V99.2151ZM142.173 91.1464H140.533C140.119 91.1464 139.785 91.4804 139.785 91.8942V105.713C139.785 106.815 138.893 107.707 137.791 107.707H134.376C133.274 107.707 132.382 106.815 132.382 105.713V72.2871C132.382 71.1853 133.274 70.293 134.376 70.293H137.791C138.893 70.293 139.785 71.1853 139.785 72.2871V83.2148C139.785 83.6286 140.119 83.9626 140.533 83.9626H142.173C143.275 83.9626 144.167 84.855 144.167 85.9567V89.1548C144.167 90.2565 143.275 91.1489 142.173 91.1489V91.1464Z" fill="white"/>
<path d="M181.5 102.93V105.672C181.5 106.774 180.608 107.666 179.506 107.666H145.728C144.626 107.666 143.734 106.774 143.734 105.672V102.93C143.734 101.828 144.626 100.936 145.728 100.936H157.86C158.411 100.936 158.857 100.49 158.857 99.9391V96.9155C158.857 96.3646 158.411 95.9184 157.86 95.9184H147.825C146.723 95.9184 145.83 95.0261 145.83 93.9243V82.0294C145.83 80.9277 146.723 80.0353 147.825 80.0353H171.27C171.751 80.0353 172.143 79.644 172.143 79.1629V77.6748C172.143 77.1937 171.751 76.8024 171.27 76.8024H147.735C146.633 76.8024 145.741 75.91 145.741 74.8083V72.3281C145.741 71.2263 146.633 70.334 147.735 70.334H177.447C178.549 70.334 179.441 71.2263 179.441 72.3281V84.2055C179.441 85.3073 178.549 86.1996 177.447 86.1996H154.001C153.52 86.1996 153.129 86.591 153.129 87.0721V88.5801C153.129 89.0612 153.52 89.4525 154.001 89.4525H177.886C178.988 89.4525 179.88 90.3449 179.88 91.4466V93.9268C179.88 95.0286 178.988 95.9209 177.886 95.9209H167.369C166.818 95.9209 166.372 96.3671 166.372 96.918V99.9415C166.372 100.492 166.818 100.939 167.369 100.939H179.501C180.603 100.939 181.495 101.831 181.495 102.933L181.5 102.93Z" fill="white"/>
</svg>
