<svg width="21" height="20" viewBox="0 0 21 20" fill="none" xmlns="http://www.w3.org/2000/svg">
<path d="M10.4942 3C6.06889 3 2.5 5.89574 2.5 9.4112C2.5 11.6931 3.98466 13.6912 6.21164 14.832L5.45789 17.6874C5.44368 17.7301 5.4415 17.7761 5.45159 17.82C5.46167 17.864 5.48362 17.9044 5.515 17.9364C5.56074 17.9772 5.6196 17.9999 5.6806 18C5.73116 17.996 5.77914 17.9756 5.81763 17.9422L9.06104 15.724C9.53981 15.791 10.0224 15.8258 10.5058 15.8282C14.9255 15.8282 18.5 12.9325 18.5 9.4112C18.5 5.88995 14.914 3 10.4942 3Z" fill="#181600"/>
</svg>
